<?xml version="1.0" encoding="UTF-8" standalone="no"?>
<svg
   xmlns:dc="http://purl.org/dc/elements/1.1/"
   xmlns:cc="http://creativecommons.org/ns#"
   xmlns:rdf="http://www.w3.org/1999/02/22-rdf-syntax-ns#"
   xmlns:svg="http://www.w3.org/2000/svg"
   xmlns="http://www.w3.org/2000/svg"
   xmlns:sodipodi="http://sodipodi.sourceforge.net/DTD/sodipodi-0.dtd"
   xmlns:inkscape="http://www.inkscape.org/namespaces/inkscape"
   version="1.1"
   x="0px"
   y="0px"
   viewBox="0 0 100 100"
   enable-background="new 0 0 100 100"
   xml:space="preserve"
   id="svg3711"
   sodipodi:docname="rotate_CM_color.svg"
   inkscape:version="0.92.2 (5c3e80d, 2017-08-06)"><metadata
     id="metadata3717"><rdf:RDF><cc:Work
         rdf:about=""><dc:format>image/svg+xml</dc:format><dc:type
           rdf:resource="http://purl.org/dc/dcmitype/StillImage" /><dc:title></dc:title></cc:Work></rdf:RDF></metadata><defs
     id="defs3715" /><sodipodi:namedview
     pagecolor="#ffffff"
     bordercolor="#666666"
     borderopacity="1"
     objecttolerance="10"
     gridtolerance="10"
     guidetolerance="10"
     inkscape:pageopacity="0"
     inkscape:pageshadow="2"
     inkscape:window-width="2560"
     inkscape:window-height="1377"
     id="namedview3713"
     showgrid="false"
     inkscape:zoom="12.08"
     inkscape:cx="36.548013"
     inkscape:cy="50"
     inkscape:window-x="2552"
     inkscape:window-y="-8"
     inkscape:window-maximized="1"
     inkscape:current-layer="svg3711" /><path
     d="M100,50c0,27.614-22.386,50-50,50C22.385,100,0,77.613,0,50S22.385,0,50,0C77.614,0,100,22.386,100,50 M19.743,35.276  l17.678-0.311l5.116-5.117H29.512c9.783-9.783,25.178-11.129,36.511-3.194l3.522-5.03c-13.774-9.645-32.484-8.008-44.375,3.882  V12.481l-5.427,5.428V35.276 M51.877,83.291L42.77,68.137l-6.99-1.873l6.514,11.281c-4.834-1.295-9.242-3.84-12.781-7.379  c-5.959-5.959-8.976-14.248-8.241-22.643l-6.116-0.535c-0.893,10.204,2.773,20.278,10.016,27.52  c4.301,4.301,9.658,7.395,15.533,8.969l-11.281,6.512l7.414,1.986L51.877,83.291 M77.393,31.455l-8.57,15.465l1.873,6.991  l6.514-11.281c2.636,9.838-0.178,20.336-7.38,27.537c-2.352,2.352-5.096,4.273-8.11,5.68l2.596,5.564  c3.663-1.709,6.999-4.045,9.857-6.902c8.753-8.754,12.172-21.512,8.968-33.468l11.28,6.513l-1.986-7.414L77.393,31.455"
     id="path3709"
     style="fill:#67bcb0;fill-opacity:1"
     inkscape:export-xdpi="96"
     inkscape:export-ydpi="96" /></svg>